HIERARCHY
ROOT Hips
{
	OFFSET	0.00	0.00	0.00
	CHANNELS 6 Xposition Yposition Zposition Zrotation Xrotation Yrotation
	JOINT Spine
	{
		OFFSET	 0.00	0.01	 0.00
		CHANNELS 3 Zrotation Xrotation Yrotation
		JOINT Spine1
		{
			OFFSET	 0.00	 2.45913012437421	 0.00
			CHANNELS 3 Zrotation Xrotation Yrotation
            JOINT Neck
            {
                OFFSET	 0.00	 2.48462964506057	 0.00
                CHANNELS 3 Zrotation Xrotation Yrotation
                JOINT Head
                {
                    OFFSET	 0.00	 0.927524780924562	 0.00
                    CHANNELS 3 Zrotation Xrotation Yrotation
                    End Site 
                    {
                        OFFSET	 0.00	 1.14999962169752	 0.00
                    }
                }
            }
			JOINT LeftShoulder
			{
				OFFSET	 0.00	 2.48462964506057	 0.00
				CHANNELS 3 Zrotation Xrotation Yrotation
				JOINT LeftUpArm
				{
					OFFSET	 0.00	 1.24881979654096	 0.00
					CHANNELS 3 Zrotation Xrotation Yrotation
					JOINT LeftForeArm
					{
						OFFSET	 0.00	2.59758046908119	 0.00
						CHANNELS 3 Zrotation Xrotation Yrotation
						JOINT LeftHand
						{
							OFFSET	 0.00	2.45542024364365	 0.00
							CHANNELS 3 Zrotation Xrotation Yrotation
							JOINT LeftHandThumb 
							{
								OFFSET	 0.00	0.00	 0.00
								CHANNELS 3 Zrotation Xrotation Yrotation
								End Site
								{
									OFFSET	 0.00	0.00	1.00000003353624
								}
							}
							JOINT L_Wrist_End 
							{
								OFFSET	 0.00	0.99999967115358	 0.00
								CHANNELS 3 Zrotation Xrotation Yrotation
								End Site 
								{
									OFFSET	 0.00	 0.00	 0.00
								}
							}
						}
					}
				}
			}
			JOINT RightShoulder
			{
				OFFSET	 0.00	 2.48462964506057	 0.00
				CHANNELS 3 Zrotation Xrotation Yrotation
				JOINT RightUpArm
				{
					OFFSET	 0.00	 1.24881979654096	 0.00
					CHANNELS 3 Zrotation Xrotation Yrotation
					JOINT RightForeArm
					{
						OFFSET	 0.00	2.59758046908119	 0.00
						CHANNELS 3 Zrotation Xrotation Yrotation
						JOINT RightHand
						{
							OFFSET	 0.00	2.45542024364365	 0.00
							CHANNELS 3 Zrotation Xrotation Yrotation
							JOINT RightHandThumb 
							{
								OFFSET	 0.00	0.00	 0.00
								CHANNELS 3 Zrotation Xrotation Yrotation
								End Site
								{
									OFFSET	 0.00	0.00	1.00000003353624
								}
							}
							JOINT R_Wrist_End 
							{
								OFFSET	 0.00	0.99999967115358	 0.00
								CHANNELS 3 Zrotation Xrotation Yrotation
								End Site 
								{
									OFFSET	 0.00	 0.00	 0.00
								}
							}
						}
					}
				}
			}
		}
	}
	JOINT LeftUpLeg
	{
		OFFSET	 1.2719394002717	 0.00	 0.00
		CHANNELS 3 Zrotation Xrotation Yrotation
		JOINT LeftLowLeg
		{
			OFFSET	 0.00	-4.3429100912261	 0.00
			CHANNELS 3 Zrotation Xrotation Yrotation
			JOINT LeftFoot
			{
				OFFSET	 0.00	-4.48767017425826	 0.00
				CHANNELS 3 Zrotation Xrotation Yrotation
				JOINT LeftToeBase
                {
                    OFFSET	 0.00	0.00	 1.51507020887566
                    CHANNELS 3 Zrotation Xrotation Yrotation
                    End Site 
                    {
                        OFFSET	 0.00	0.00	 0.75000010571191
                    }
                }
			}
		}
	}
	JOINT RightUpLeg
	{
		OFFSET	 -1.2719393604653	 0.00	 0.00
		CHANNELS 3 Zrotation Xrotation Yrotation
		JOINT RightLowLeg
		{
			OFFSET	 0.00	-4.3429100912261	 0.00
			CHANNELS 3 Zrotation Xrotation Yrotation
			JOINT RightFoot
			{
				OFFSET	 0.00	-4.48767017425826	 0.00
				CHANNELS 3 Zrotation Xrotation Yrotation
				JOINT RightToeBase
                {
                    OFFSET	 0.00	0.00	 1.51507020887566
                    CHANNELS 3 Zrotation Xrotation Yrotation
                    End Site 
                    {
                        OFFSET	 0.00	0.00	 0.749999965609858
                    }
                }   
			}
		}
	}
}
MOTION 
Frames:	20 
Frame Time: 0.02 
 -2.7651901245117188 0.6943830108642578 9.482230224609374 -5.9284 -81.7705 355.547 162.335 21.9109 -166.289 -27.3808 23.7293 2.2673 29.1552 47.7371 350.693 -56.2773 -83.9206 -45.6134 -109.7489 1.8154 4.23708 -41.4636 9.10987 25.4395 0.0 21.3086 0.0 6.26129 -16.4069 -7.74005 0.0 0.0 0.0 0.0 0.0 0.0 134.3806 -2.68942 0.625125 42.1293 5.71162 -19.2321 0.0 23.3497 0.0 4.37319 -7.63788 11.9898 0.0 0.0 0.0 0.0 0.0 0.0 -176.475 9.66798 170.053 0.0 15.9733 0.0 -7.0055 -0.11909962 14.6438 0.0 -25.0362 0.0 175.839 10.8198 -161.343 0.0 21.4547 0.0 20.2468 -4.0599003 -11.6549 0.0 -23.01397 0.0 
  -2.7603500366210936 0.691134033203125 9.48166015625 -5.9498 -81.8487 355.527 161.722 20.6089 -164.791 -28.3125 22.4413 0.854987 30.4982 48.3834 349.738 -55.0402 -84.1009 -44.2367 -109.1224 1.53186 5.02562 -41.4848 9.03707 25.2487 0.0 21.2751 0.0 6.23675 -16.5405 -8.00842 0.0 0.0 0.0 0.0 0.0 0.0 135.0144 -3.14826 0.0883335 42.1343 5.54931 -19.2349 0.0 23.2891 0.0 4.40253 -7.55148 11.6628 0.0 0.0 0.0 0.0 0.0 0.0 -176.449 9.598 170.101 0.0 16.0293 0.0 -6.97596 -0.14309978 14.6099 0.0 -25.0069 0.0 175.882 10.7548 -161.475 0.0 21.5014 0.0 20.2545 -4.0503006 -11.5327 0.0 -22.99161 0.0 
  -2.7565399169921876 0.6793789672851562 9.482730102539062 -5.37652 -81.8497 355.788 161.449 20.4466 -164.448 -28.732 22.1974 0.460124 30.8444 48.4193 349.503 -53.6776 -84.1652 -42.8713 -108.8273 1.4513 5.20791 -41.5726 8.97717 25.1846 0.0 21.2685 0.0 6.23634 -16.4594 -7.76267 0.0 0.0 0.0 0.0 0.0 0.0 135.1789 -3.2648 -0.124326 42.2105 5.51792 -19.2635 0.0 23.2923 0.0 4.43354 -7.66783 11.7448 0.0 0.0 0.0 0.0 0.0 0.0 -176.459 9.56313 169.849 0.0 16.0358 0.0 -6.93976 -0.13619995 14.5744 0.0 -25.0102 0.0 175.892 10.6085 -161.731 0.0 21.3879 0.0 20.2413 -4.0422993 -11.6132 0.0 -23.037159 0.0 
  -2.7543099975585936 0.6713410186767578 9.482520141601562 -5.44637 -81.7887 355.704 161.445 20.5418 -164.41 -28.7531 22.2685 0.69374 30.8048 48.0145 349.437 -53.2255 -84.2313 -42.418 -108.8346 1.55333 5.1247 -41.5912 8.98818 25.2282 0.0 21.2795 0.0 6.29935 -16.4331 -7.39593 0.0 0.0 0.0 0.0 0.0 0.0 135.1131 -3.26516 0.0230058 42.2874 5.4971 -19.3235 0.0 23.24 0.0 4.45868 -7.59187 11.7603 0.0 0.0 0.0 0.0 0.0 0.0 -176.446 9.54712 169.939 0.0 15.9706 0.0 -6.90779 -0.115400314 14.4853 0.0 -25.0371 0.0 175.91 10.6187 -161.66 0.0 21.3918 0.0 20.6077 -4.0830994 -11.5806 0.0 -23.305359 0.0 
  -2.7536700439453123 0.6557939910888672 9.483259887695313 -4.97717 -81.6972 355.887 161.44 20.7897 -164.519 -28.7857 22.2381 0.686722 30.7361 47.9703 349.511 -53.4373 -84.2693 -42.631 -108.8436 1.52439 5.14248 -41.5653 8.95536 25.2596 0.0 21.2325 0.0 6.34929 -16.4294 -7.24959 0.0 0.0 0.0 0.0 0.0 0.0 135.11081 -3.21137 -0.107691 42.3075 5.45176 -19.3677 0.0 23.2178 0.0 4.52284 -7.78344 11.8983 0.0 0.0 0.0 0.0 0.0 0.0 -176.474 9.52907 169.741 0.0 15.8798 0.0 -6.86878 -0.09490013 14.4097 0.0 -25.0386 0.0 175.901 10.5209 -161.785 0.0 21.2585 0.0 20.557 -4.1345005 -11.7554 0.0 -23.32109 0.0 
  -2.751510009765625 0.640968017578125 9.483980102539062 -4.56934 -81.5894 356.102 161.487 21.3173 -164.863 -28.6617 22.5847 1.15305 30.3609 47.5559 349.737 -53.0692 -84.2593 -42.2998 -108.9671 1.63174 4.94341 -41.5705 8.99078 25.3277 0.0 21.2019 0.0 6.36835 -16.4036 -7.13314 0.0 0.0 0.0 0.0 0.0 0.0 134.9245 -3.13531 0.0317401 42.3858 5.53905 -19.5655 0.0 23.0813 0.0 4.52682 -7.6899 12.0872 0.0 0.0 0.0 0.0 0.0 0.0 -176.49 9.5298 169.58 0.0 15.8081 0.0 -6.87297 -0.10649967 14.3744 0.0 -25.0094 0.0 175.919 10.4505 -162.01 0.0 21.1027 0.0 20.3478 -4.1313 -11.8526 0.0 -23.21397 0.0 
  -2.7498300170898435 0.6436129760742187 9.4825 -5.18779 -81.5563 355.702 161.388 20.8227 -164.346 -28.8673 22.1064 0.759307 30.5256 47.7212 349.676 -53.2648 -84.322 -42.4648 -108.8794 1.54508 5.09247 -41.5187 8.99769 25.4223 0.0 21.1733 0.0 6.38447 -16.3364 -7.18487 0.0 0.0 0.0 0.0 0.0 0.0 135.0521 -3.16367 -0.206802 42.3705 5.55633 -19.6345 0.0 23.0127 0.0 4.54543 -7.72607 12.1344 0.0 0.0 0.0 0.0 0.0 0.0 -176.421 9.56936 169.8 0.0 15.8421 0.0 -6.86251 -0.11369991 14.3676 0.0 -25.0313 0.0 175.922 10.6409 -161.615 0.0 21.3983 0.0 20.4696 -4.2614994 -11.8664 0.0 -23.24715 0.0 
  -2.7501800537109373 0.6356919860839844 9.480919799804688 -5.52634 -81.5559 355.292 161.388 20.5684 -164.08 -29.0201 21.785 0.493031 30.7072 47.7777 349.554 -53.0197 -84.3663 -42.1962 -108.753204 1.52331 5.23194 -41.5088 9.0213 25.6136 0.0 21.1424 0.0 6.49829 -16.2366 -6.84183 0.0 0.0 0.0 0.0 0.0 0.0 135.1338 -3.20565 -0.331861 42.405 5.47411 -19.8251 0.0 22.9726 0.0 4.50759 -7.67606 12.0699 0.0 0.0 0.0 0.0 0.0 0.0 -176.364 9.54132 169.772 0.0 15.8785 0.0 -6.86747 -0.13739967 14.3157 0.0 -25.0223 0.0 175.95 10.6184 -161.594 0.0 21.4967 0.0 20.5116 -4.4188004 -11.9065 0.0 -23.218079 0.0 
  -2.7499899291992187 0.6296670150756836 9.48010009765625 -5.62461 -81.5616 355.127 161.42 20.5563 -164.083 -29.0262 21.7307 0.438388 30.5458 47.8546 349.766 -53.2163 -84.3801 -42.4321 -108.747696 1.52419 5.28738 -41.4791 9.06379 25.6898 0.0 21.1778 0.0 6.55576 -16.2693 -6.89995 0.0 0.0 0.0 0.0 0.0 0.0 135.1068 -3.09597 -0.380411 42.4205 5.44607 -20.0183 0.0 22.9366 0.0 4.51492 -7.76399 12.3027 0.0 0.0 0.0 0.0 0.0 0.0 -176.341 9.52367 169.758 0.0 15.9197 0.0 -6.86105 -0.1576004 14.2685 0.0 -25.0155 0.0 175.95 10.6081 -161.596 0.0 21.5891 0.0 20.481 -4.4899006 -11.9732 0.0 -23.225609 0.0 
  -2.7499398803710937 0.6259659957885743 9.478900146484374 -5.88676 -81.5739 354.882 161.433 20.4772 -163.994 -29.0581 21.6802 0.450586 30.513 47.8352 349.805 -52.6172 -84.3565 -41.8724 -108.6949 1.58121 5.29489 -41.4974 9.075 25.854 0.0 21.2099 0.0 6.66654 -16.2635 -6.65989 0.0 0.0 0.0 0.0 0.0 0.0 135.07669 -3.13242 -0.289401 42.4702 5.41552 -20.2224 0.0 22.917 0.0 4.54003 -7.76124 12.4738 0.0 0.0 0.0 0.0 0.0 0.0 -176.306 9.49213 169.797 0.0 15.9373 0.0 -6.84519 -0.17409992 14.255 0.0 -25.026001 0.0 175.957 10.6438 -161.554 0.0 21.7475 0.0 20.5443 -4.584299 -11.936 0.0 -23.216301 0.0 
  -2.749739990234375 0.6203129959106445 9.47822998046875 -5.95896 -81.6162 354.771 161.399 20.3807 -163.888 -29.1271 21.5951 0.360077 30.6426 47.9995 349.702 -52.316 -84.2897 -41.5565 -108.6328 1.60429 5.41768 -41.4796 9.14035 26.0531 0.0 21.2338 0.0 6.83486 -16.2285 -6.34845 0.0 0.0 0.0 0.0 0.0 0.0 135.0725 -3.15659 -0.409816 42.493 5.46487 -20.3359 0.0 22.9227 0.0 4.56702 -7.75154 12.5009 0.0 0.0 0.0 0.0 0.0 0.0 -176.291 9.43958 169.786 0.0 15.982 0.0 -6.82201 -0.19239998 14.2384 0.0 -25.043499 0.0 175.941 10.6072 -161.504 0.0 21.8538 0.0 20.4922 -4.636101 -12.03 0.0 -23.2583 0.0 
  -2.749530029296875 0.612150001525879 9.477410278320313 -6.04044 -81.6389 354.606 161.451 20.5225 -164.035 -29.0684 21.6975 0.460152 30.6237 48.214 349.738 -52.0507 -84.1681 -41.291 -108.621796 1.68575 5.30474 -41.5269 9.08114 26.3163 0.0 21.2709 0.0 7.1014 -16.1827 -6.03175 0.0 0.0 0.0 0.0 0.0 0.0 134.9815 -3.06541 -0.487238 42.4896 5.52353 -20.4786 0.0 22.9703 0.0 4.54101 -7.76983 12.2816 0.0 0.0 0.0 0.0 0.0 0.0 -176.26 9.4094 169.709 0.0 16.0611 0.0 -6.80576 -0.23120022 14.2298 0.0 -25.063099 0.0 175.946 10.6027 -161.62 0.0 22.0116 0.0 20.4399 -4.677799 -12.0181 0.0 -23.30118 0.0 
  -2.7495098876953126 0.6102209854125976 9.476640014648437 -6.15673 -81.6989 354.582 161.369 20.231 -163.761 -29.1681 21.4542 0.206528 30.7779 48.7734 349.752 -52.2835 -84.0899 -41.5859 -108.5402 1.67489 5.49645 -41.4993 9.09685 26.4323 0.0 21.3099 0.0 7.12694 -16.1482 -6.09165 0.0 0.0 0.0 0.0 0.0 0.0 135.04291 -3.09808 -0.605714 42.4538 5.48206 -20.6158 0.0 23.0418 0.0 4.46808 -7.70207 12.3639 0.0 0.0 0.0 0.0 0.0 0.0 -176.259 9.36291 169.82 0.0 16.1325 0.0 -6.78675 -0.27439976 14.2243 0.0 -25.0406 0.0 175.935 10.6268 -161.677 0.0 22.1772 0.0 20.4036 -4.648899 -11.9165 0.0 -23.337181 0.0 
  -2.7517098999023437 0.6053910064697265 9.475449829101562 -6.37415 -81.7948 354.276 161.462 20.1653 -163.818 -29.1163 21.4204 0.123761 30.9461 49.1665 349.668 -52.0897 -83.9755 -41.3358 -108.4972 1.72754 5.37886 -41.5077 8.9291 26.7138 0.0 21.3917 0.0 7.27778 -16.2143 -6.24153 0.0 0.0 0.0 0.0 0.0 0.0 134.9991 -3.12619 -0.505589 42.4874 5.4277 -20.8271 0.0 23.0698 0.0 4.44142 -7.67807 12.443 0.0 0.0 0.0 0.0 0.0 0.0 -176.242 9.28431 169.813 0.0 16.2144 0.0 -6.81831 -0.3036003 14.1284 0.0 -25.0683 0.0 175.954 10.5545 -161.88 0.0 22.3004 0.0 20.364 -4.6991997 -11.8389 0.0 -23.335 0.0 
  -2.753160095214844 0.6013290023803711 9.474940185546876 -6.37457 -81.8277 354.246 161.53 20.2009 -163.922 -29.0186 21.4528 0.14364 30.9295 49.388 349.712 -52.4692 -83.9072 -41.7383 -108.5215 1.83672 4.98708 -41.4941 8.49704 26.9711 0.0 21.6245 0.0 7.29066 -16.1682 -5.55258 0.0 0.0 0.0 0.0 0.0 0.0 134.9564 -3.08596 -0.32518 42.4657 5.27885 -20.9923 0.0 23.1524 0.0 4.43518 -7.67559 12.4294 0.0 0.0 0.0 0.0 0.0 0.0 -176.247 9.24958 169.78 0.0 16.2605 0.0 -6.82167 -0.3352003 14.1188 0.0 -25.0732 0.0 175.949 10.5257 -161.987 0.0 22.3584 0.0 20.3234 -4.698601 -11.7982 0.0 -23.33702 0.0 
  -2.753559875488281 0.5998920059204101 9.474530029296876 -6.33105 -81.9245 354.298 161.524 20.0502 -163.913 -28.9816 21.4494 0.0160143 30.8944 49.5785 349.793 -53.3261 -83.9111 -42.6186 -108.5121 1.81105 4.93825 -41.3466 8.34711 27.2598 0.0 22.0374 0.0 7.31062 -16.1832 -6.15181 0.0 0.0 0.0 0.0 0.0 0.0 134.9419 -3.07166 -0.214679 42.3941 5.2064 -21.2597 0.0 23.3158 0.0 4.40415 -7.73787 12.3302 0.0 0.0 0.0 0.0 0.0 0.0 -176.258 9.18788 169.787 0.0 16.3527 0.0 -6.84257 -0.38519955 14.1227 0.0 -25.0721 0.0 175.922 10.4692 -161.991 0.0 22.4501 0.0 20.3272 -4.6879997 -11.7745 0.0 -23.37642 0.0 
  -2.755409851074219 0.602145004272461 9.473389892578124 -6.54068 -82.0457 354.184 161.59 19.6546 -163.862 -28.8634 21.3827 -0.241721 30.5597 49.2889 350.06 -55.86 -84.1123 -45.1808 -108.4646 1.74114 4.92139 -41.0601 8.12133 27.9211 0.0 22.8849 0.0 7.804 -15.9741 -4.9632 0.0 0.0 0.0 0.0 0.0 0.0 134.9485 -3.11575 -0.179315 42.1593 5.17634 -21.794 0.0 23.762 0.0 4.1609 -7.62713 12.2607 0.0 0.0 0.0 0.0 0.0 0.0 -176.25 9.13873 169.833 0.0 16.4987 0.0 -6.87381 -0.45720005 14.1487 0.0 -25.0469 0.0 175.912 10.4279 -161.966 0.0 22.5697 0.0 20.3717 -4.6919003 -11.666 0.0 -23.41073 0.0 
  -2.7577200317382813 0.6036040115356446 9.47291015625 -6.31986 -82.106 354.415 161.794 19.3625 -164.036 -28.4455 21.337 -0.459505 29.7253 48.5438 350.716 -61.8537 -84.5056 -51.3608 -108.5573 1.53463 4.92341 -40.6444 7.94517 28.6431 0.0 24.0756 0.0 8.17348 -15.7209 -4.03078 0.0 0.0 0.0 0.0 0.0 0.0 134.79941 -3.18572 0.0359708 41.8345 5.04076 -22.888 0.0 24.4636 0.0 3.89086 -7.70989 12.4376 0.0 0.0 0.0 0.0 0.0 0.0 -176.282 9.15632 169.76 0.0 16.6411 0.0 -6.91395 -0.5326004 14.1977 0.0 -25.0525 0.0 175.872 10.3887 -161.998 0.0 22.5816 0.0 20.3589 -4.6534996 -11.6173 0.0 -23.40048 0.0 
  -2.7627099609375 0.6031340026855468 9.472130126953125 -6.16426 -82.1332 354.56 162.449 19.2409 -164.691 -27.2736 21.3566 -0.407094 28.1609 47.0814 351.735 -73.0775 -84.8033 -62.8 -109.0675 1.26975 5.06638 -39.8467 7.79986 29.4763 0.0 26.1344 0.0 8.87206 -15.7391 -2.34688 0.0 0.0 0.0 0.0 0.0 0.0 134.3654 -3.3507 -0.0215991 41.1085 5.13524 -24.2437 0.0 25.8813 0.0 3.67585 -8.00615 12.7475 0.0 0.0 0.0 0.0 0.0 0.0 -176.328 9.17347 169.74 0.0 16.734 0.0 -6.96843 -0.6023998 14.1737 0.0 -25.040901 0.0 175.938 10.2987 -162.568 0.0 22.3978 0.0 20.23 -4.4955997 -11.2111 0.0 -23.35862 0.0 
  -2.7684100341796873 0.6038909912109375 9.47239990234375 -6.1132 -82.1458 354.763 163.102 18.5531 -164.941 -26.0978 20.567 -1.0776 26.6336 46.0165 352.869 -87.3414 -84.8553 -77.1729 -109.524 0.559949 5.42411 -38.807 7.1907 30.0556 0.0 29.3158 0.0 9.76928 -15.9563 0.223431 0.0 0.0 0.0 0.0 0.0 0.0 134.0792 -3.56059 -0.636869 39.9208 4.90684 -25.5972 0.0 28.2686 0.0 3.70037 -8.6951 13.3517 0.0 0.0 0.0 0.0 0.0 0.0 -176.394 9.18309 169.897 0.0 16.7929 0.0 -7.00955 -0.6338997 14.1465 0.0 -25.053001 0.0 175.934 10.2809 -162.712 0.0 22.3199 0.0 20.2136 -4.3752995 -10.9637 0.0 -23.35346 0.0 
